<svg width="17" height="15" viewBox="0 0 17 15" fill="none" xmlns="http://www.w3.org/2000/svg">
<path fill-rule="evenodd" clip-rule="evenodd" d="M10.5811 1.87814C9.65698 0.307287 7.33535 0.307277 6.41117 1.87814L1.17208 10.7833C0.232498 12.3804 1.4463 14.3 3.25706 14.3H13.7353C15.546 14.3 16.7598 12.3804 15.8202 10.7833L10.5811 1.87814ZM7.8625 11.9625C7.8625 12.3146 8.14792 12.6 8.5 12.6C8.85208 12.6 9.1375 12.3146 9.1375 11.9625V10.6875C9.1375 10.3354 8.85208 10.05 8.5 10.05C8.14792 10.05 7.8625 10.3354 7.8625 10.6875V11.9625ZM7.8625 7.7125C7.8625 8.06458 8.14792 8.35 8.5 8.35C8.85208 8.35 9.1375 8.06458 9.1375 7.7125L9.1375 4.7375C9.1375 4.38542 8.85208 4.1 8.5 4.1C8.14792 4.1 7.8625 4.38542 7.8625 4.7375L7.8625 7.7125Z" fill="#E06600"/>
</svg>
